<svg id="Capa_1" enable-background="new 0 0 510 510" height="512" viewBox="0 0 510 510" width="512" xmlns="http://www.w3.org/2000/svg" xmlns:xlink="http://www.w3.org/1999/xlink"><linearGradient id="lg1"><stop offset="0" stop-color="#ffd945"/><stop offset=".3043" stop-color="#ffcd3e"/><stop offset=".8558" stop-color="#ffad2b"/><stop offset="1" stop-color="#ffa325"/></linearGradient><linearGradient id="SVGID_1_" gradientUnits="userSpaceOnUse" x1="216.603" x2="216.603" xlink:href="#lg1" y1="457.468" y2="479.006"/><linearGradient id="SVGID_2_" gradientUnits="userSpaceOnUse" x1="216.603" x2="216.603" xlink:href="#lg1" y1="382.694" y2="404.233"/><linearGradient id="SVGID_3_" gradientUnits="userSpaceOnUse" x1="216.603" x2="216.603" xlink:href="#lg1" y1="307.92" y2="329.459"/><linearGradient id="SVGID_4_" gradientUnits="userSpaceOnUse" x1="216.603" x2="216.603" xlink:href="#lg1" y1="176.847" y2="198.386"/><linearGradient id="SVGID_5_" gradientUnits="userSpaceOnUse" x1="216.603" x2="216.603" xlink:href="#lg1" y1="102.073" y2="123.612"/><linearGradient id="SVGID_6_" gradientUnits="userSpaceOnUse" x1="216.603" x2="216.603" xlink:href="#lg1" y1="27.299" y2="48.838"/><linearGradient id="lg2"><stop offset="0" stop-color="#ff7044"/><stop offset="1" stop-color="#f92814"/></linearGradient><linearGradient id="SVGID_7_" gradientUnits="userSpaceOnUse" x1="236.688" x2="213.669" xlink:href="#lg2" y1="226.182" y2="259.21"/><linearGradient id="SVGID_8_" gradientUnits="userSpaceOnUse" x1="288.574" x2="239.105" y1="315.381" y2="265.912"><stop offset="0" stop-color="#f92814" stop-opacity="0"/><stop offset="1" stop-color="#c1272d"/></linearGradient><linearGradient id="lg3"><stop offset="0" stop-color="#cdec7a"/><stop offset=".34" stop-color="#c1ea76"/><stop offset=".9563" stop-color="#a1e66b"/><stop offset="1" stop-color="#9ee66a"/></linearGradient><linearGradient id="SVGID_9_" gradientUnits="userSpaceOnUse" x1="160.456" x2="179.432" xlink:href="#lg3" y1="317.663" y2="339.35"/><linearGradient id="SVGID_10_" gradientUnits="userSpaceOnUse" x1="362.076" x2="377.677" xlink:href="#lg3" y1="55.709" y2="73.538"/><linearGradient id="SVGID_11_" gradientTransform="matrix(-.707 .707 -.707 -.707 1523.72 3990.018)" gradientUnits="userSpaceOnUse" x1="-1913.802" x2="-1871.112" xlink:href="#lg2" y1="3453.636" y2="3453.636"/><linearGradient id="SVGID_12_" gradientTransform="matrix(-1 0 0 -1 -173.15 4639.451)" gradientUnits="userSpaceOnUse" x1="-552.559" x2="-509.869" xlink:href="#lg2" y1="4409.347" y2="4409.347"/><linearGradient id="SVGID_13_" gradientTransform="matrix(0 -1 1 0 -2481.67 2201.931)" gradientUnits="userSpaceOnUse" x1="2029.181" x2="2071.871" xlink:href="#lg2" y1="2918.433" y2="2918.433"/><g><g><g><path d="m59.468 451.78h314.271v37.048h-314.271z" fill="url(#SVGID_1_)"/><path d="m59.468 377.006h314.271v37.048h-314.271z" fill="url(#SVGID_2_)"/><path d="m121.521 302.232h190.164v37.048h-190.164z" fill="url(#SVGID_3_)"/></g><g><path d="m121.521 171.159h190.164v37.048h-190.164z" fill="url(#SVGID_4_)"/><path d="m358.686 133.434h-299.218v-37.049h314.271v21.996c-.001 8.313-6.74 15.053-15.053 15.053z" fill="url(#SVGID_5_)"/><path d="m59.468 21.611h314.271v37.048h-314.271z" fill="url(#SVGID_6_)"/></g></g><g><path d="m380.75 510c-11.026 0-19.964-10.204-19.964-22.792 0-30.625-6.817-61.007-19.714-87.86s-31.669-49.751-54.287-66.218l-161.835-117.827c-28.259-20.575-51.713-49.185-67.827-82.736s-24.632-71.512-24.632-109.775c0-12.588 8.938-22.792 19.964-22.792s19.964 10.204 19.964 22.792c0 30.625 6.817 61.007 19.714 87.86s31.668 49.751 54.286 66.218l161.834 117.827c28.259 20.575 51.714 49.185 67.828 82.736s24.632 71.512 24.632 109.776c.001 12.587-8.937 22.791-19.963 22.791z" fill="url(#SVGID_7_)"/><path d="m308.254 294.697-72.525-52.803-38.229 26.232 89.283 65.004c8.997 6.551 17.374 14.134 25.026 22.564h52.355c-14.958-24.203-33.977-45.028-55.91-60.997z" fill="url(#SVGID_8_)"/><path d="m307.922 171.157c18.078 0 26.515 22.529 12.785 34.289-1.09.934-2.189 1.855-3.297 2.763-2.993 2.472-6.045 4.834-9.158 7.096l-161.83 117.822c-22.619 16.474-41.396 39.364-54.287 66.217-12.901 26.853-19.717 57.239-19.717 87.866 0 12.591-8.938 22.79-19.967 22.79-11.019 0-19.957-10.199-19.957-22.79 0-38.263 8.517-76.226 24.631-109.775s39.564-62.163 67.828-82.741l118.792-86.484s24.676-18.023 39.528-28.959c7.145-5.26 15.777-8.094 24.649-8.094z" fill="url(#SVGID_9_)"/><path d="m400.711 22.79c0 25.042-3.653 49.953-10.689 73.593-2.138 7.181-6.53 18.281-9.899 26.461-2.64 6.409-8.882 10.591-15.814 10.591-16.025 0-26.611-16.702-19.73-31.174 1.278-2.687 2.228-4.789 2.646-5.878 8.908-23.13 13.562-48.282 13.562-73.593 0-12.581 8.938-22.79 19.967-22.79 11.02 0 19.957 10.209 19.957 22.79z" fill="url(#SVGID_10_)"/></g><g><g><g><path d="m389.297 182.639c6.085-6.085 15.95-6.085 22.034 0l35.588 35.588c6.085 6.085 6.085 15.95 0 22.034-6.085 6.085-15.95 6.085-22.034 0l-35.588-35.588c-6.085-6.085-6.085-15.95 0-22.034z" fill="url(#SVGID_11_)"/></g></g><g><g><path d="m355.673 189.359c8.605 0 15.581 6.976 15.581 15.581v50.33c0 8.605-6.976 15.581-15.581 15.581-8.605 0-15.581-6.976-15.581-15.581v-50.33c0-8.605 6.976-15.581 15.581-15.581z" fill="url(#SVGID_12_)"/></g></g><g><g><path d="m477.509 149.014c0 8.605-6.976 15.581-15.581 15.581h-50.33c-8.605 0-15.581-6.976-15.581-15.581 0-8.605 6.976-15.581 15.581-15.581h50.33c8.605.001 15.581 6.976 15.581 15.581z" fill="url(#SVGID_13_)"/></g></g></g></g></svg>