<svg height="512" viewBox="0 0 64 64" width="512" xmlns="http://www.w3.org/2000/svg"><g id="Fill_Outline" data-name="Fill Outline"><g id="Color"><g><g><path d="m14 9h40v52h-40z" fill="#f9e109"/><path d="m42 51a18 18 0 0 1 -18-18v-24h-10v52h40v-10z" fill="#fcbc04"/><path d="m18 9h32v48h-32z" fill="#aae1f9"/><path d="m23 9h16a2 2 0 0 1 2 2v2a4 4 0 0 1 -4 4h-10a4 4 0 0 1 -4-4v-4a0 0 0 0 1 0 0z" fill="#57b7eb"/><path d="m50 57v-6h-8a18 18 0 0 1 -18-18v-24h-6v48z" fill="#57b7eb"/><path d="m27 7h14a2 2 0 0 1 2 2v2a4 4 0 0 1 -4 4h-10a4 4 0 0 1 -4-4v-2a2 2 0 0 1 2-2z" fill="#f9e109"/><path d="m41 12h-10a4 4 0 0 1 -4-4v-1a2 2 0 0 0 -2 2v2a4 4 0 0 0 4 4h10a3.987 3.987 0 0 0 3.953-3.529 3.959 3.959 0 0 1 -1.953.529z" fill="#fcbc04"/><path d="m54 24.928-14.099 24.419-.401 6.696 5.598-3.696 8.902-15.419z" fill="#fcbc04"/><path d="m50 31.856-10.099 17.491-.401 6.696 5.598-3.696 4.902-8.491z" fill="#57b7eb"/></g><g><path d="m45.499 25.455h6v24h-6z" fill="#d0d8da" transform="matrix(.866 .5 -.5 .866 25.225 -19.232)"/><path d="m45.098 49.347-5.197-3-.402 6.696z" fill="#f9e109"/><path d="m52.499 23.331h6v4h-6z" fill="#aae1f9" transform="matrix(.866 .5 -.5 .866 20.101 -24.356)"/><path d="m58 18a3 3 0 0 1 3 3v3a0 0 0 0 1 0 0h-6a0 0 0 0 1 0 0v-3a3 3 0 0 1 3-3z" fill="#f9e109" transform="matrix(.866 .5 -.5 .866 18.271 -26.186)"/><path d="m46.452 42.538a28.447 28.447 0 0 1 -3.952 5.307l2.6 1.5 12-20.784-1.933-1.116z" fill="#93999a"/><path d="m39.655 50.456-.155 2.587 5.6-3.7-2.6-1.5a28.559 28.559 0 0 1 -2.845 2.613z" fill="#fcbc04"/><path d="m55.131 25.157h4v2.232h-4z" fill="#57b7eb" transform="matrix(.5 -.866 .866 .5 5.813 62.614)"/><path d="m59.5 18.4a2.987 2.987 0 0 0 -1.26-.383 2.994 2.994 0 0 1 .36 3.483l-1.433 2.483 1.933 1.117 1.5-2.6a3 3 0 0 0 -1.1-4.1z" fill="#fcbc04"/></g><g><path d="m32 45h4v4h-4z" fill="#f9e109"/><path d="m36.387 23h-4.619l-2.309 4 2.309 4h4.619l2.309-4z" fill="#93999a"/><circle cx="44" cy="21" fill="#c4f236" r="2"/><circle cx="24" cy="21" fill="#c4f236" r="2"/><path d="m32 47h4v2h-4z" fill="#fcbc04"/><path d="m45 22a1.992 1.992 0 0 1 -1.82-2.82 2 2 0 1 0 2.64 2.64 1.99 1.99 0 0 1 -.82.18z" fill="#a1d51c"/><path d="m25 22a1.992 1.992 0 0 1 -1.82-2.82 2 2 0 1 0 2.64 2.64 1.99 1.99 0 0 1 -.82.18z" fill="#a1d51c"/><path d="m32.613 29-1.154-2 2.309-4h-2l-2.309 4 2.309 4h4.619l1.155-2z" fill="#656b76"/></g><g><path d="m6 32h8a0 0 0 0 1 0 0v25a4 4 0 0 1 -4 4 4 4 0 0 1 -4-4v-25a0 0 0 0 1 0 0z" fill="#93999a"/><path d="m9 56v-18a4 4 0 0 1 4-4h1v-2h-8v25a3.984 3.984 0 0 0 6.662 2.966 3.987 3.987 0 0 1 -3.662-3.966z" fill="#656b76"/><rect fill="#d0d8da" height="4" rx="2" width="14" x="3" y="28"/><path d="m6 40h8a0 0 0 0 1 0 0v17a4 4 0 0 1 -4 4 4 4 0 0 1 -4-4v-17a0 0 0 0 1 0 0z" fill="#c4f236"/><path d="m9 56v-16h-3v17a3.984 3.984 0 0 0 6.662 2.966 3.987 3.987 0 0 1 -3.662-3.966z" fill="#a1d51c"/><path d="m5 28a2 2 0 0 0 0 4h10a2 2 0 0 0 2-2h-10a2 2 0 0 1 -2-2z" fill="#93999a"/></g><g><path d="m23 43.784v-3.784h-6v3.784a8 8 0 0 1 -1.14 4.116l-4.3 7.17a3.919 3.919 0 0 0 -.56 2.015 3.915 3.915 0 0 0 3.915 3.915h10.17a3.915 3.915 0 0 0 3.915-3.915 3.919 3.919 0 0 0 -.558-2.015l-4.3-7.17a8 8 0 0 1 -1.142-4.116z" fill="#93999a"/><path d="m16.6 53.455a4.187 4.187 0 0 1 .559-2.714l1.7-2.841a8 8 0 0 0 1.141-4.116 1.784 1.784 0 0 1 1.784-1.784h1.216v-2h-6v3.784a8 8 0 0 1 -1.14 4.116l-4.3 7.17a3.915 3.915 0 0 0 3.355 5.93h10.17a3.915 3.915 0 0 0 3.915-3.915h-8.253a4.19 4.19 0 0 1 -4.147-3.63z" fill="#656b76"/><rect fill="#d0d8da" height="4" rx="2" width="12" x="14" y="36"/><path d="m21 51a2.828 2.828 0 0 0 -4 0 2.819 2.819 0 0 1 -3.3.5l-2.142 3.57a3.915 3.915 0 0 0 3.357 5.93h10.17a3.915 3.915 0 0 0 3.357-5.93l-2.742-4.57a2.8 2.8 0 0 0 -.7.5 2.828 2.828 0 0 1 -4 0z" fill="#c4f236"/><path d="m16.6 53.455a4.181 4.181 0 0 1 .451-2.494c-.015.015-.032.024-.047.039a2.819 2.819 0 0 1 -3.3.5l-2.146 3.57a3.915 3.915 0 0 0 3.357 5.93h10.17a3.915 3.915 0 0 0 3.915-3.915h-8.253a4.19 4.19 0 0 1 -4.147-3.63z" fill="#a1d51c"/><path d="m16 36a2 2 0 0 0 0 4h8a2 2 0 0 0 2-2h-8a2 2 0 0 1 -2-2z" fill="#93999a"/></g></g></g><g id="Outline_copy" data-name="Outline copy"><g fill="#434951"><path d="m54 39.928a1 1 0 0 0 -1 1v19.072h-23.98a4.865 4.865 0 0 0 .279-5.444l-2.74-4.569-1.559-2.601a7 7 0 0 1 -1-3.6 1 1 0 1 0 -2 0 8.994 8.994 0 0 0 1.283 4.631l1.087 1.813c-.024.022-.053.041-.077.065a1.831 1.831 0 0 1 -2.586 0 3.835 3.835 0 0 0 -5.415 0 1.8 1.8 0 0 1 -1.005.506l1.43-2.384a8.994 8.994 0 0 0 1.283-4.633v-2.784h6a3 3 0 0 0 0-6h-8a3 3 0 0 0 0 6v2.784a7 7 0 0 1 -1 3.6l-4.3 7.17a4.9 4.9 0 0 0 .163 5.3 2.867 2.867 0 0 1 -.863.146 3 3 0 0 1 -3-3v-16h4a1 1 0 0 0 0-2h-4v-6h8a3 3 0 0 0 0-6h-10a3 3 0 0 0 0 6v24a5.006 5.006 0 0 0 5 5 4.884 4.884 0 0 0 2.471-.677 4.854 4.854 0 0 0 2.445.677h39.084a1 1 0 0 0 1-1v-20.072a1 1 0 0 0 -1-1zm-39-1.928a1 1 0 0 1 1-1h8a1 1 0 0 1 0 2h-8a1 1 0 0 1 -1-1zm-11-8a1 1 0 0 1 1-1h10a1 1 0 0 1 0 2h-10a1 1 0 0 1 -1-1zm8 27.085a2.916 2.916 0 0 1 .416-1.5l1.719-2.866a3.8 3.8 0 0 0 3.572-1.012 1.831 1.831 0 0 1 2.586 0 3.836 3.836 0 0 0 5.123.264l2.168 3.614a2.914 2.914 0 0 1 -2.5 4.415h-10.168a2.919 2.919 0 0 1 -2.916-2.915z"/><circle cx="9" cy="53" r="1"/><circle cx="11" cy="48" r="1"/><circle cx="10" cy="44" r="1"/><circle cx="15" cy="57" r="1"/><circle cx="19" cy="54" r="1"/><circle cx="19" cy="58" r="1"/><path d="m60 17.536a4.007 4.007 0 0 0 -5.465 1.464l-3.5 6.062-.035.06v-15.122h2v4.928a1 1 0 0 0 2 0v-5.928a1 1 0 0 0 -1-1h-10.184a3 3 0 0 0 -2.816-2h-2.1a5 5 0 0 0 -9.8 0h-2.1a3 3 0 0 0 -2.816 2h-10.184a1 1 0 0 0 -1 1v15a1 1 0 0 0 2 0v-14h2v15a1 1 0 0 0 2 0v-15h5v1a5.006 5.006 0 0 0 5 5h10a5.006 5.006 0 0 0 5-5v-1h5v18.588l-9.965 17.26a1.015 1.015 0 0 0 -.132.44l-.4 6.7a1 1 0 0 0 1.549.9l5.6-3.695a1.012 1.012 0 0 0 .316-.335l3.032-5.269v11.411h-16.006a1 1 0 0 0 0 2h17.006a1 1 0 0 0 1-1v-15.875l3.464-6a1 1 0 0 0 -1.733-1l-8 13.857-3.464-2 11-19.053 3.464 2-1 1.732a1 1 0 0 0 1.733 1l5-8.66a4.007 4.007 0 0 0 -1.464-5.465zm-26-13.536a3.006 3.006 0 0 1 2.829 2h-5.658a3.006 3.006 0 0 1 2.829-2zm8 7a3 3 0 0 1 -3 3h-10a3 3 0 0 1 -3-3v-2a1 1 0 0 1 1-1h14a1 1 0 0 1 1 1zm14.268 9a2 2 0 1 1 3.463 2l-1 1.731-1.732-1-1.732-1zm1.463 5.464-1 1.731-1.731-.995-1.732-1 1-1.731 1.732 1zm-16.931 22.559 2.4 1.382-2.578 1.7z"/><path d="m32 42a1 1 0 0 0 1-1v-6a1 1 0 0 0 -2 0v6a1 1 0 0 0 1 1z"/><path d="m37 35a1 1 0 0 0 -2 0v6a1 1 0 0 0 2 0z"/><path d="m31 49a1 1 0 0 0 1 1h4a1 1 0 0 0 1-1v-4a1 1 0 0 0 -1-1h-4a1 1 0 0 0 -1 1zm2-3h2v2h-2z"/><circle cx="34" cy="19" r="1"/><circle cx="27" cy="31" r="1"/><circle cx="41" cy="31" r="1"/><path d="m24 18a3 3 0 0 0 0 6 2.973 2.973 0 0 0 1.9-.7l3.372 2.023-.68 1.177a1 1 0 0 0 0 1l2.31 4a1 1 0 0 0 .866.5h4.619a1 1 0 0 0 .866-.5l2.309-4a1 1 0 0 0 0-1l-.716-1.241 3.254-1.954a2.973 2.973 0 0 0 1.9.695 3 3 0 1 0 -2.94-2.4l-3.214 1.928-.593-1.028a1 1 0 0 0 -.866-.5h-4.619a1 1 0 0 0 -.866.5l-.633 1.1-3.329-2a3 3 0 0 0 -2.94-3.6zm20 2a1 1 0 1 1 -1 1 1 1 0 0 1 1-1zm-11.655 4h3.465l.82 1.422.912 1.578-1.732 3h-3.465l-1.732-3 .871-1.509zm-8.345-2a1 1 0 1 1 1-1 1 1 0 0 1 -1 1z"/></g></g></g></svg>