<svg id="Capa_1" enable-background="new 0 0 510 510" height="512" viewBox="0 0 510 510" width="512" xmlns="http://www.w3.org/2000/svg" xmlns:xlink="http://www.w3.org/1999/xlink"><linearGradient id="lg1"><stop offset="0" stop-color="#8a7889"/><stop offset="1" stop-color="#6e566e"/></linearGradient><linearGradient id="SVGID_1_" gradientUnits="userSpaceOnUse" x1="203.481" x2="274.409" xlink:href="#lg1" y1="357.986" y2="385.045"/><linearGradient id="SVGID_2_" gradientUnits="userSpaceOnUse" x1="246.798" x2="265.247" y1="495.236" y2="396.839"><stop offset="0" stop-color="#6e566e" stop-opacity="0"/><stop offset=".3782" stop-color="#6a516a" stop-opacity=".378"/><stop offset=".8244" stop-color="#5f435d" stop-opacity=".824"/><stop offset="1" stop-color="#593b56"/></linearGradient><linearGradient id="SVGID_3_" gradientUnits="userSpaceOnUse" x1="255" x2="255" xlink:href="#lg1" y1="456.466" y2="473.242"/><linearGradient id="SVGID_4_" gradientUnits="userSpaceOnUse" x1="223.88" x2="389.931" xlink:href="#lg1" y1="127.42" y2="547.516"/><linearGradient id="SVGID_5_" gradientUnits="userSpaceOnUse" x1="465" x2="-135.9" xlink:href="#lg1" y1="416.152" y2="-184.748"/><linearGradient id="lg2"><stop offset="0" stop-color="#18cffc"/><stop offset="1" stop-color="#4a98f7"/></linearGradient><linearGradient id="SVGID_6_" gradientUnits="userSpaceOnUse" x1="227.546" x2="374.035" xlink:href="#lg2" y1="136.696" y2="507.3"/><linearGradient id="lg3"><stop offset="0" stop-color="#0469bc" stop-opacity="0"/><stop offset="1" stop-color="#0469bc"/></linearGradient><linearGradient id="SVGID_7_" gradientUnits="userSpaceOnUse" x1="53" x2="12.988" xlink:href="#lg3" y1="206.152" y2="206.152"/><linearGradient id="SVGID_8_" gradientUnits="userSpaceOnUse" x1="255" x2="255" xlink:href="#lg3" y1="81.152" y2="38.856"/><linearGradient id="SVGID_9_" gradientTransform="matrix(-1 0 0 -1 -3746 -3746)" gradientUnits="userSpaceOnUse" x1="-4105.653" x2="-3910.68" xlink:href="#lg2" y1="-4056.805" y2="-3861.832"/><linearGradient id="SVGID_10_" gradientUnits="userSpaceOnUse" x1="226.944" x2="279.214" xlink:href="#lg2" y1="178.096" y2="230.366"/><linearGradient id="SVGID_11_" gradientUnits="userSpaceOnUse" x1="231.62" x2="278.38" xlink:href="#lg1" y1="206.152" y2="206.152"/><linearGradient id="SVGID_12_" gradientUnits="userSpaceOnUse" x1="188.966" x2="321.035" xlink:href="#lg1" y1="127.906" y2="127.906"/><linearGradient id="SVGID_13_" gradientUnits="userSpaceOnUse" x1="270.539" x2="369.773" xlink:href="#lg1" y1="250.394" y2="250.394"/><linearGradient id="SVGID_14_" gradientUnits="userSpaceOnUse" x1="140.227" x2="239.461" xlink:href="#lg1" y1="250.394" y2="250.394"/><g><g><g><path d="m325.723 406.894v-69.593c0-39.059-31.664-70.723-70.723-70.723-39.059 0-70.723 31.664-70.723 70.723v69.593c0 5.899-2.055 11.613-5.812 16.16l-19.869 24.053c-3.734 4.52-.519 11.346 5.344 11.346h182.12c5.863 0 9.078-6.826 5.344-11.346l-19.87-24.053c-3.756-4.547-5.811-10.262-5.811-16.16z" fill="url(#SVGID_1_)"/><path d="m351.404 447.107-19.87-24.053c-1.754-2.123-3.132-4.503-4.108-7.035h-144.853c-.976 2.532-2.354 4.912-4.108 7.035l-19.87 24.053c-3.734 4.52-.519 11.346 5.344 11.346h182.12c5.864 0 9.079-6.826 5.345-11.346z" fill="url(#SVGID_2_)"/></g><path d="m370.144 482.36h-230.288c-9.341 0-16.914-7.572-16.914-16.914v-.698c0-9.341 7.572-16.914 16.914-16.914h230.287c9.341 0 16.914 7.572 16.914 16.914v.698c0 9.341-7.572 16.914-16.913 16.914z" fill="url(#SVGID_3_)"/></g><g><g><path d="m494.098 384.663h-478.196c-8.782 0-15.902-7.119-15.902-15.902v-325.219c0-8.782 7.12-15.902 15.902-15.902h478.195c8.783 0 15.902 7.12 15.902 15.902v325.219c.001 8.783-7.119 15.902-15.901 15.902z" fill="url(#SVGID_4_)"/><path d="m486.067 376.605h-462.134c-8.435 0-15.273-6.838-15.273-15.273v-310.36c0-8.435 6.838-15.273 15.273-15.273h462.133c8.435 0 15.273 6.838 15.273 15.273v310.36c.001 8.435-6.837 15.273-15.272 15.273z" fill="url(#SVGID_5_)"/><g><path d="m472.591 361.094h-435.181c-7.061 0-12.785-5.724-12.785-12.786v-284.313c0-7.061 5.724-12.785 12.785-12.785h435.181c7.061 0 12.785 5.724 12.785 12.785v284.313c0 7.061-5.724 12.786-12.785 12.786z" fill="url(#SVGID_6_)"/><g><path d="m66 51.21h-28.59c-7.061 0-12.785 5.724-12.785 12.785v284.313c0 7.061 5.724 12.786 12.785 12.786h28.59z" fill="url(#SVGID_7_)"/><path d="m472.59 51.21h-435.18c-7.061 0-12.785 5.724-12.785 12.785v23.156h460.752v-23.156c-.001-7.061-5.725-12.785-12.787-12.785z" fill="url(#SVGID_8_)"/></g></g></g></g><g><circle cx="255" cy="206.152" fill="url(#SVGID_9_)" r="139.137"/><circle cx="255" cy="206.152" fill="url(#SVGID_10_)" r="37.301"/><g><circle cx="255" cy="206.152" fill="url(#SVGID_11_)" r="23.38"/><path d="m320.118 120.486-20.2 39.494c-2.383 4.659-8.333 5.834-12.528 2.706-.028-.021-.056-.042-.084-.063-9.012-6.717-20.191-10.67-32.307-10.67-12.115 0-23.294 3.953-32.306 10.67-.028.021-.056.042-.084.063-4.195 3.128-10.145 1.952-12.528-2.706l-20.2-39.494c-1.944-3.801-.707-8.476 2.878-10.794 17.912-11.58 39.277-18.312 62.24-18.312s44.328 6.733 62.24 18.312c3.586 2.317 4.823 6.993 2.879 10.794z" fill="url(#SVGID_12_)"/><g><path d="m369.773 206.152c0 44.948-25.832 83.845-63.476 102.705-3.841 1.924-8.526.636-10.819-2.997l-23.664-37.488c-2.797-4.431-.788-10.174 4.048-12.191.031-.013.063-.026.094-.039 19.511-8.204 33.242-27.503 33.242-49.99 0-1.87-.085-3.741-.298-5.611-.003-.035-.007-.07-.01-.105-.518-5.206 3.539-9.705 8.76-9.377l44.223 2.775c4.298.27 7.662 3.772 7.821 8.075.052 1.409.079 2.823.079 4.243z" fill="url(#SVGID_13_)"/><path d="m238.186 268.372-23.664 37.488c-2.293 3.632-6.979 4.921-10.819 2.997-37.644-18.86-63.476-57.757-63.476-102.705 0-1.42.027-2.834.079-4.243.158-4.303 3.523-7.806 7.821-8.075l44.223-2.775c5.221-.328 9.278 4.172 8.76 9.377-.003.035-.007.07-.01.105-.212 1.871-.298 3.741-.298 5.611 0 22.487 13.73 41.786 33.242 49.99.031.013.063.026.094.039 4.837 2.017 6.846 7.76 4.048 12.191z" fill="url(#SVGID_14_)"/></g></g></g></g></svg>