<svg id="Capa_1" enable-background="new 0 0 510 510" height="512" viewBox="0 0 510 510" width="512" xmlns="http://www.w3.org/2000/svg" xmlns:xlink="http://www.w3.org/1999/xlink"><linearGradient id="SVGID_1_" gradientTransform="matrix(.626 .78 -.78 .626 -1545.263 545.424)" gradientUnits="userSpaceOnUse" x1="904.64" x2="904.64" y1="-1582.617" y2="-1535.157"><stop offset="0" stop-color="#ff7044"/><stop offset=".2346" stop-color="#fe653c"/><stop offset=".6509" stop-color="#fb4628"/><stop offset="1" stop-color="#f82814"/></linearGradient><linearGradient id="SVGID_2_" gradientTransform="matrix(-.626 .78 .78 .626 -1119.536 545.424)" gradientUnits="userSpaceOnUse" x1="-1091.346" x2="-1091.346" y1="905.648" y2="953.108"><stop offset="0" stop-color="#18cffc"/><stop offset="1" stop-color="#4a98f7"/></linearGradient><linearGradient id="lg1"><stop offset="0" stop-color="#8a7889"/><stop offset="1" stop-color="#6e566e"/></linearGradient><linearGradient id="SVGID_3_" gradientUnits="userSpaceOnUse" x1="98.35" x2="411.651" xlink:href="#lg1" y1="258.029" y2="258.029"/><linearGradient id="lg2"><stop offset="0" stop-color="#6e566e" stop-opacity="0"/><stop offset=".2944" stop-color="#674d66" stop-opacity=".294"/><stop offset="1" stop-color="#593b56"/></linearGradient><linearGradient id="SVGID_4_" gradientUnits="userSpaceOnUse" x1="255" x2="255" xlink:href="#lg2" y1="392.29" y2="306.828"/><linearGradient id="lg3"><stop offset="0" stop-color="#ffd945"/><stop offset=".3043" stop-color="#ffcd3e"/><stop offset=".8558" stop-color="#ffad2b"/><stop offset="1" stop-color="#ffa325"/></linearGradient><linearGradient id="SVGID_5_" gradientUnits="userSpaceOnUse" x1="150.729" x2="344.991" xlink:href="#lg3" y1="153.758" y2="348.02"/><linearGradient id="SVGID_6_" gradientTransform="matrix(-1 0 0 -1 -3746 -8002)" gradientUnits="userSpaceOnUse" x1="-4098.759" x2="-3916.63" xlink:href="#lg3" y1="-8357.788" y2="-8175.659"/><linearGradient id="SVGID_7_" gradientUnits="userSpaceOnUse" x1="228.792" x2="277.619" xlink:href="#lg3" y1="231.821" y2="280.648"/><linearGradient id="SVGID_8_" gradientUnits="userSpaceOnUse" x1="233.161" x2="276.839" xlink:href="#lg1" y1="258.029" y2="258.029"/><linearGradient id="SVGID_9_" gradientUnits="userSpaceOnUse" x1="193.316" x2="316.685" xlink:href="#lg1" y1="184.938" y2="184.938"/><linearGradient id="SVGID_10_" gradientUnits="userSpaceOnUse" x1="254.998" x2="254.998" y1="366.842" y2="321.209"><stop offset="0" stop-color="#e87264" stop-opacity="0"/><stop offset=".6519" stop-color="#f67150" stop-opacity=".652"/><stop offset="1" stop-color="#ff7044"/></linearGradient><linearGradient id="SVGID_11_" gradientUnits="userSpaceOnUse" x1="269.515" x2="362.212" xlink:href="#lg1" y1="299.357" y2="299.357"/><linearGradient id="SVGID_12_" gradientUnits="userSpaceOnUse" x1="147.788" x2="240.485" xlink:href="#lg1" y1="299.357" y2="299.357"/><linearGradient id="SVGID_13_" gradientUnits="userSpaceOnUse" x1="255" x2="255" y1="260.662" y2="308.121"><stop offset="0" stop-color="#cdec7a"/><stop offset=".34" stop-color="#c1ea76"/><stop offset=".9563" stop-color="#a1e66b"/><stop offset="1" stop-color="#9ee66a"/></linearGradient><linearGradient id="lg4"><stop offset="0" stop-color="#f0ddfc"/><stop offset=".4474" stop-color="#c1aec7"/><stop offset="1" stop-color="#8a7889"/></linearGradient><linearGradient id="SVGID_14_" gradientUnits="userSpaceOnUse" x1="146.669" x2="174.801" xlink:href="#lg4" y1="58.832" y2="86.964"/><linearGradient id="SVGID_15_" gradientUnits="userSpaceOnUse" x1="166.472" x2="229.124" xlink:href="#lg2" y1="99.801" y2="51.397"/><linearGradient id="SVGID_16_" gradientUnits="userSpaceOnUse" x1="416.793" x2="444.924" xlink:href="#lg4" y1="190.535" y2="218.666"/><linearGradient id="SVGID_17_" gradientUnits="userSpaceOnUse" x1="436.595" x2="499.248" xlink:href="#lg2" y1="231.503" y2="183.099"/><linearGradient id="SVGID_18_" gradientUnits="userSpaceOnUse" x1="90.665" x2="118.797" xlink:href="#lg4" y1="357.469" y2="385.6"/><linearGradient id="SVGID_19_" gradientUnits="userSpaceOnUse" x1="110.468" x2="173.12" xlink:href="#lg2" y1="398.437" y2="350.033"/><g><path d="m397.692 363.681c-.137.078-.273.157-.41.235-7.23 4.153-10.274 13.04-7.056 20.732 4.042 9.661 6.602 17.374 8.197 23.472 2.446 9.332-7.301 17.151-15.881 12.739-9.472-4.866-22.877-13.429-41.206-28.482l-.103-.086c-10.489-8.63-21.445-18.459-32.686-29.275-24.859-23.978-50.97-52.756-75.997-83.956s-47.456-62.932-65.469-92.401c-8.12-13.32-15.338-26.147-21.487-38.258-.856-1.698-1.686-3.35-2.476-4.966-9.137-18.613-13.966-32.052-16.451-41.545-2.449-9.364 7.344-17.14 15.946-12.713 6.363 3.277 14.486 8.213 24.686 15.657 1.462 1.066 3.018 1.854 4.624 2.399 7.944 2.639 17.046-.95 20.682-9.109 1.263-2.801 1.686-5.808 1.348-8.697-.341-3.146-1.57-6.165-3.586-8.677-.911-1.136-1.98-2.146-3.186-3.046-39.145-28.549-66.741-35.617-84.196-21.615-19.029 15.265-16.244 47.725 8.542 99.254 4.274 8.89 9.124 18.162 14.484 27.733 5.153 9.186 10.773 18.661 16.812 28.307 17.882 28.562 39.478 58.779 63.495 88.72 24.017 29.94 48.83 57.578 72.832 81.23 6.692 6.59 13.324 12.88 19.857 18.822 9.608 8.751 18.997 16.755 28.059 23.886 44.925 35.376 76.008 45.136 95.037 29.872 16.839-13.508 16.596-40.481-.845-82.23-3.846-9.217-14.905-12.973-23.566-8.002z" fill="url(#SVGID_1_)"/><path d="m103.834 371.68c-17.441 41.749-17.684 68.722-.845 82.23 19.029 15.265 50.112 5.504 95.037-29.872 9.061-7.131 18.451-15.134 28.059-23.886 6.533-5.942 13.164-12.232 19.857-18.822 24.002-23.653 48.815-51.29 72.832-81.23s45.613-60.158 63.495-88.72c6.039-9.646 11.659-19.12 16.812-28.307 5.36-9.571 10.21-18.843 14.484-27.733 24.787-51.53 27.572-83.99 8.542-99.254-17.455-14.002-45.05-6.933-84.196 21.615-1.206.9-2.275 1.91-3.186 3.046-2.015 2.512-3.244 5.531-3.586 8.677-.338 2.89.085 5.896 1.348 8.697 3.636 8.159 12.738 11.748 20.682 9.109 1.607-.545 3.162-1.333 4.624-2.399 10.201-7.443 18.323-12.38 24.686-15.657 8.603-4.428 18.395 3.349 15.946 12.713-2.485 9.493-7.314 22.932-16.451 41.545-.79 1.616-1.62 3.268-2.476 4.966-6.149 12.111-13.367 24.939-21.487 38.258-18.014 29.469-40.442 61.201-65.469 92.401s-51.138 59.978-75.997 83.956c-11.241 10.816-22.197 20.646-32.686 29.275l-.103.086c-18.329 15.052-31.734 23.615-41.206 28.482-8.579 4.413-18.327-3.406-15.881-12.739 1.596-6.098 4.156-13.811 8.197-23.472 3.218-7.692.174-16.579-7.056-20.732-.136-.078-.273-.157-.41-.235-8.658-4.968-19.717-1.212-23.566 8.002z" fill="url(#SVGID_2_)"/><g><circle cx="255" cy="258.029" fill="url(#SVGID_3_)" r="156.651"/><path d="m404.337 305.459c-20.095 63.331-79.354 109.217-149.337 109.217s-129.242-45.886-149.337-109.217c2.571.465 5.169.921 7.801 1.36 10.39 1.729 21.298 3.273 32.6 4.598 33.469 3.923 70.553 5.985 108.936 5.985s75.467-2.062 108.936-5.985c9.328-1.097 18.384-2.334 27.107-3.712 4.519-.71 8.959-1.465 13.294-2.246z" fill="url(#SVGID_4_)"/><circle cx="255" cy="258.029" fill="url(#SVGID_5_)" r="138.629"/><circle cx="255" cy="258.029" fill="url(#SVGID_6_)" r="129.971"/><circle cx="255" cy="258.029" fill="url(#SVGID_7_)" r="34.844"/><g><circle cx="255" cy="258.029" fill="url(#SVGID_8_)" r="21.839"/><path d="m315.829 178.006-18.869 36.892c-2.226 4.352-7.784 5.45-11.703 2.528-.026-.02-.052-.039-.079-.058-8.418-6.274-18.861-9.967-30.178-9.967s-21.76 3.693-30.178 9.967c-.026.019-.052.039-.079.058-3.919 2.922-9.477 1.824-11.703-2.528l-18.869-36.892c-1.816-3.551-.661-7.918 2.688-10.083 16.732-10.817 36.689-17.106 58.14-17.106s41.408 6.289 58.14 17.106c3.35 2.165 4.506 6.533 2.69 10.083z" fill="url(#SVGID_9_)"/><path d="m363.936 311.418c-33.469 3.923-70.553 5.985-108.936 5.985s-75.467-2.062-108.936-5.985c-6.868-.805-13.568-1.7-20.117-2.66 20.248 51.469 70.395 87.9 129.053 87.9 58.654 0 108.798-36.426 129.049-87.89-6.542.959-13.252 1.843-20.113 2.65z" fill="url(#SVGID_10_)"/><g><path d="m362.212 258.029c0 41.987-24.13 78.322-59.294 95.939-3.587 1.797-7.965.594-10.106-2.799l-22.105-35.019c-2.613-4.139-.736-9.504 3.782-11.388.029-.012.059-.025.088-.037 18.226-7.663 31.052-25.691 31.052-46.697 0-1.747-.079-3.494-.278-5.242-.003-.033-.006-.065-.01-.098-.484-4.863 3.306-9.065 8.183-8.759l41.31 2.592c4.015.252 7.158 3.523 7.305 7.543.048 1.318.073 2.639.073 3.965z" fill="url(#SVGID_11_)"/><path d="m239.294 316.151-22.105 35.018c-2.142 3.393-6.519 4.597-10.106 2.799-35.164-17.618-59.294-53.952-59.294-95.939 0-1.326.025-2.647.073-3.963.148-4.02 3.291-7.292 7.305-7.543l41.31-2.592c4.877-.306 8.667 3.897 8.183 8.76-.003.033-.006.065-.01.098-.198 1.747-.278 3.495-.278 5.242 0 21.006 12.826 39.033 31.052 46.697.029.012.059.025.088.037 4.518 1.881 6.395 7.246 3.782 11.386z" fill="url(#SVGID_12_)"/></g></g></g><path d="m424.341 213.963c-.024.156-.049.311-.073.467-1.285 8.239 3.743 16.173 11.757 18.476 10.065 2.893 17.683 5.721 23.438 8.292 8.81 3.931 8.81 16.427 0 20.359-9.723 4.344-24.79 9.442-48.001 14.321l-.132.026c-13.295 2.782-27.818 5.177-43.288 7.178-34.259 4.388-73.045 6.748-113.043 6.748s-78.784-2.361-113.043-6.748c-15.471-2.001-29.994-4.396-43.288-7.178-1.86-.395-3.668-.781-5.423-1.176-20.236-4.519-33.741-9.161-42.7-13.163-8.837-3.949-8.775-16.454.061-20.394 6.538-2.913 15.471-6.16 27.66-9.46 1.746-.474 3.335-1.193 4.765-2.106 7.029-4.546 9.925-13.891 5.836-21.833-1.395-2.738-3.475-4.949-5.941-6.494-2.668-1.702-5.792-2.633-9.012-2.633-1.457 0-2.913.202-4.37.579-46.763 12.674-69.544 29.777-69.544 52.153 0 24.395 27.063 42.534 82.768 55.442 9.609 2.229 19.876 4.247 30.696 6.055 10.39 1.729 21.298 3.273 32.6 4.598 33.469 3.923 70.553 5.985 108.936 5.985s75.467-2.062 108.936-5.985c9.328-1.097 18.384-2.334 27.107-3.712 12.838-2.018 24.957-4.335 36.189-6.941 55.705-12.908 82.768-31.046 82.768-55.442 0-21.588-21.193-38.276-64.672-50.794-9.596-2.763-19.445 3.513-20.987 13.38z" fill="url(#SVGID_13_)"/><g><circle cx="172.374" cy="84.538" fill="url(#SVGID_14_)" r="28.375"/><path d="m185.936 59.608c2.196 4.029 3.445 8.649 3.445 13.561 0 15.671-12.704 28.375-28.375 28.375-4.912 0-9.532-1.249-13.561-3.445 4.811 8.825 14.171 14.814 24.93 14.814 15.671 0 28.375-12.704 28.375-28.375-.001-10.759-5.989-20.119-14.814-24.93z" fill="url(#SVGID_15_)"/></g><g><circle cx="442.498" cy="216.24" fill="url(#SVGID_16_)" r="28.375"/><path d="m456.059 191.31c2.196 4.029 3.445 8.649 3.445 13.561 0 15.671-12.704 28.375-28.375 28.375-4.912 0-9.532-1.249-13.561-3.445 4.811 8.825 14.171 14.814 24.93 14.814 15.671 0 28.375-12.704 28.375-28.375 0-10.759-5.989-20.119-14.814-24.93z" fill="url(#SVGID_17_)"/></g><g><circle cx="116.371" cy="383.174" fill="url(#SVGID_18_)" r="28.375"/><path d="m129.932 358.244c2.196 4.029 3.445 8.649 3.445 13.561 0 15.671-12.704 28.375-28.375 28.375-4.912 0-9.532-1.249-13.561-3.445 4.811 8.825 14.171 14.814 24.93 14.814 15.671 0 28.375-12.704 28.375-28.375 0-10.759-5.989-20.119-14.814-24.93z" fill="url(#SVGID_19_)"/></g></g></svg>