<svg id="Capa_1" enable-background="new 0 0 510 510" height="512" viewBox="0 0 510 510" width="512" xmlns="http://www.w3.org/2000/svg" xmlns:xlink="http://www.w3.org/1999/xlink"><linearGradient id="lg1"><stop offset="0" stop-color="#8a7889"/><stop offset="1" stop-color="#6e566e"/></linearGradient><linearGradient id="SVGID_1_" gradientTransform="matrix(-1 0 0 -1 510 510)" gradientUnits="userSpaceOnUse" x1="0" x2="510" xlink:href="#lg1" y1="255" y2="255"/><linearGradient id="SVGID_2_" gradientUnits="userSpaceOnUse" x1="7.573" x2="502.428" xlink:href="#lg1" y1="255" y2="255"/><linearGradient id="lg2"><stop offset="0" stop-color="#ffd945"/><stop offset=".3043" stop-color="#ffcd3e"/><stop offset=".8558" stop-color="#ffad2b"/><stop offset="1" stop-color="#ffa325"/></linearGradient><linearGradient id="SVGID_3_" gradientUnits="userSpaceOnUse" x1="90.305" x2="397.139" xlink:href="#lg2" y1="90.305" y2="397.139"/><linearGradient id="SVGID_4_" gradientTransform="matrix(-1 0 0 -1 510 510)" gradientUnits="userSpaceOnUse" x1="100.591" x2="388.262" xlink:href="#lg2" y1="100.591" y2="388.262"/><linearGradient id="SVGID_5_" gradientUnits="userSpaceOnUse" x1="213.605" x2="290.726" xlink:href="#lg2" y1="213.605" y2="290.726"/><linearGradient id="SVGID_6_" gradientUnits="userSpaceOnUse" x1="220.505" x2="289.495" xlink:href="#lg1" y1="255" y2="255"/><linearGradient id="SVGID_7_" gradientUnits="userSpaceOnUse" x1="157.57" x2="352.43" xlink:href="#lg1" y1="139.553" y2="139.553"/><linearGradient id="SVGID_8_" gradientUnits="userSpaceOnUse" x1="277.927" x2="424.34" xlink:href="#lg1" y1="320.276" y2="320.276"/><linearGradient id="SVGID_9_" gradientUnits="userSpaceOnUse" x1="85.66" x2="232.073" xlink:href="#lg1" y1="320.276" y2="320.276"/><g><circle cx="255" cy="255" fill="url(#SVGID_1_)" r="255"/><circle cx="255" cy="255" fill="url(#SVGID_2_)" r="247.428"/><circle cx="255" cy="255" fill="url(#SVGID_3_)" r="218.963"/><circle cx="255" cy="255" fill="url(#SVGID_4_)" r="205.288"/><circle cx="255" cy="255" fill="url(#SVGID_5_)" r="55.035"/><g><circle cx="255" cy="255" fill="url(#SVGID_6_)" r="34.495"/><path d="m351.078 128.605-29.804 58.271c-3.516 6.874-12.294 8.608-18.484 3.993-.041-.031-.083-.062-.124-.092-13.296-9.91-29.791-15.742-47.666-15.742s-34.37 5.832-47.666 15.742c-.041.031-.083.062-.124.092-6.19 4.615-14.968 2.881-18.484-3.993l-29.804-58.27c-2.868-5.608-1.043-12.506 4.246-15.926 26.429-17.086 57.951-27.02 91.832-27.02s65.404 9.933 91.831 27.019c5.29 3.42 7.115 10.318 4.247 15.926z" fill="url(#SVGID_7_)"/><g><path d="m424.34 255c0 66.318-38.113 123.708-93.654 151.535-5.666 2.839-12.58.938-15.963-4.422l-34.915-55.311c-4.127-6.538-1.163-15.011 5.973-17.987.046-.019.093-.039.139-.058 28.788-12.104 49.046-40.579 49.046-73.757 0-2.759-.125-5.519-.439-8.279-.005-.052-.01-.103-.015-.155-.764-7.681 5.221-14.319 12.924-13.835l65.249 4.094c6.341.398 11.306 5.565 11.539 11.915.076 2.079.116 4.165.116 6.26z" fill="url(#SVGID_8_)"/><path d="m230.192 346.802-34.915 55.311c-3.383 5.359-10.297 7.261-15.963 4.422-55.54-27.827-93.654-85.217-93.654-151.535 0-2.095.04-4.181.116-6.26.233-6.35 5.197-11.517 11.539-11.915l65.249-4.094c7.704-.483 13.689 6.155 12.924 13.836-.005.051-.01.103-.015.154-.314 2.76-.439 5.52-.439 8.279 0 33.178 20.258 61.653 49.046 73.757.046.019.093.039.139.058 7.137 2.976 10.101 11.449 5.973 17.987z" fill="url(#SVGID_9_)"/></g></g></g></svg>