<svg id="Capa_1" enable-background="new 0 0 510 510" height="512" viewBox="0 0 510 510" width="512" xmlns="http://www.w3.org/2000/svg" xmlns:xlink="http://www.w3.org/1999/xlink"><linearGradient id="lg1"><stop offset="0" stop-color="#ffdecf"/><stop offset="1" stop-color="#faa68e"/></linearGradient><linearGradient id="SVGID_1_" gradientTransform="matrix(.253 -.967 .967 .253 225.123 -2128.87)" gradientUnits="userSpaceOnUse" x1="-2393.002" x2="-2399.688" xlink:href="#lg1" y1="722.482" y2="756.698"/><linearGradient id="SVGID_2_" gradientTransform="matrix(.034 -.999 .999 .034 -80.655 -2230.39)" gradientUnits="userSpaceOnUse" x1="-2564.183" x2="-2590.345" xlink:href="#lg1" y1="511.497" y2="537.66"/><linearGradient id="SVGID_3_" gradientTransform="matrix(.253 -.967 .967 .253 225.123 -2128.87)" gradientUnits="userSpaceOnUse" x1="-2353.756" x2="-2387.265" xlink:href="#lg1" y1="763.978" y2="797.487"/><linearGradient id="SVGID_4_" gradientTransform="matrix(-1 .017 -.017 -1 -1628.814 -426.663)" gradientUnits="userSpaceOnUse" x1="-1878.717" x2="-1858.278" xlink:href="#lg1" y1="-899.477" y2="-726.975"/><linearGradient id="lg2"><stop offset="0" stop-color="#ffdecf" stop-opacity="0"/><stop offset="1" stop-color="#fff"/></linearGradient><linearGradient id="SVGID_5_" gradientTransform="matrix(-1 .017 -.017 -1 -1628.814 -426.663)" gradientUnits="userSpaceOnUse" x1="-1869.663" x2="-1935.884" xlink:href="#lg2" y1="-861.984" y2="-1036.939"/><linearGradient id="SVGID_6_" gradientUnits="userSpaceOnUse" x1="159.953" x2="66.85" y1="469.086" y2="428.147"><stop offset="0" stop-color="#faa68e" stop-opacity="0"/><stop offset="1" stop-color="#faa68e"/></linearGradient><linearGradient id="SVGID_7_" gradientUnits="userSpaceOnUse" x1="233.65" x2="262.043" xlink:href="#lg2" y1="390.861" y2="465.476"/><linearGradient id="SVGID_8_" gradientUnits="userSpaceOnUse" x1="51.531" x2="51.531" y1="385.507" y2="513.713"><stop offset="0" stop-color="#cdec7a"/><stop offset=".34" stop-color="#c1ea76"/><stop offset=".9563" stop-color="#a1e66b"/><stop offset="1" stop-color="#9ee66a"/></linearGradient><linearGradient id="lg3"><stop offset="0" stop-color="#8a7889"/><stop offset="1" stop-color="#6e566e"/></linearGradient><linearGradient id="SVGID_9_" gradientUnits="userSpaceOnUse" x1="134.094" x2="491.122" xlink:href="#lg3" y1="178.514" y2="178.514"/><linearGradient id="lg4"><stop offset="0" stop-color="#ffd945"/><stop offset=".3043" stop-color="#ffcd3e"/><stop offset=".8558" stop-color="#ffad2b"/><stop offset="1" stop-color="#ffa325"/></linearGradient><linearGradient id="SVGID_10_" gradientUnits="userSpaceOnUse" x1="193.784" x2="415.159" xlink:href="#lg4" y1="59.69" y2="281.065"/><linearGradient id="SVGID_11_" gradientTransform="matrix(-1 0 0 -1 -2682 -3746)" gradientUnits="userSpaceOnUse" x1="-3106.011" x2="-2898.462" xlink:href="#lg4" y1="-4035.917" y2="-3828.368"/><linearGradient id="SVGID_12_" gradientUnits="userSpaceOnUse" x1="282.742" x2="338.384" xlink:href="#lg4" y1="148.648" y2="204.29"/><linearGradient id="SVGID_13_" gradientUnits="userSpaceOnUse" x1="287.721" x2="337.496" xlink:href="#lg3" y1="178.514" y2="178.514"/><linearGradient id="SVGID_14_" gradientUnits="userSpaceOnUse" x1="242.315" x2="382.902" xlink:href="#lg3" y1="95.221" y2="95.221"/><linearGradient id="SVGID_15_" gradientUnits="userSpaceOnUse" x1="329.149" x2="434.783" xlink:href="#lg3" y1="225.61" y2="225.61"/><linearGradient id="SVGID_16_" gradientUnits="userSpaceOnUse" x1="190.433" x2="296.067" xlink:href="#lg3" y1="225.61" y2="225.61"/><g><g><g><g><path d="m346.299 341.082c-4.003 1.638-7.117 4.644-8.379 8.605l-10.26 32.17c-3.775 11.825-11.131 22.256-21.193 30.401 19.444 5.922 39.722-1.201 46.811-16.538 1.803-3.901 3.383-7.907 4.728-12.007l9.035-27.557c1.637-4.99-.066-10.317-3.955-14.279-1.013-.494-2.073-.916-3.194-1.251-4.777-1.449-9.626-1.167-13.593.456z" fill="url(#SVGID_1_)"/><path d="m407.518 341.227-23.49 38.447c-3.497 5.72-7.252 11.244-11.249 16.556-15.713 20.887-44.761 26.367-67.097 12.794 16.408-9.528 30.34-23.103 40.29-39.627l27.054-44.955c3.329-5.535 8.617-9.201 14.452-10.625 5.781-1.411 12.113-.623 17.604 2.703 1.29.773 2.466 1.659 3.549 2.64 3.266 6.816 3.141 15.104-1.113 22.067z" fill="url(#SVGID_2_)"/><path d="m450.425 349.168-40.19 41.407c-5.982 6.16-12.231 12.001-18.723 17.511-25.521 21.662-63.356 20.316-87.432-2.941 23.186-7.275 44.42-20.305 61.51-38.142l46.478-48.532c5.72-5.976 13.36-9.064 21.051-9.198 7.62-.132 15.308 2.638 21.23 8.341 1.394 1.329 2.612 2.768 3.69 4.299 2.158 9.438-.335 19.757-7.614 27.255z" fill="url(#SVGID_3_)"/><path d="m501.373 320.982c-11.28-10.848-29.274-10.479-40.099.822l-44.066 46.003c-17.149 17.903-38.673 30.675-62.161 37.329-.507-14.248-12.372-25.525-26.75-25.276l-17.392.301c-34.463.596-68.318-9.07-97.224-27.759-33.225-21.483-75.194-24.507-111.186-8.012l-89.293 40.923.526 30.374 1.544 89.211 17.33-4.107c60.023-14.225 121.415-21.938 183.104-23.005l71.493-1.237c66.774-1.155 130.357-28.673 176.76-76.498l38.103-39.271c10.848-11.181 10.539-28.999-.689-39.798z" fill="url(#SVGID_4_)"/><path d="m15.002 489.343-1.8-104.026 89.291-40.928c14.766-6.761 30.531-10.25 46.288-10.522 22.662-.392 45.302 5.859 64.9 18.531 28.906 18.689 62.765 28.363 97.228 27.767l17.385-.301c4.79-.083 9.307 1.108 13.205 3.273 3.247 1.785 6.061 4.243 8.269 7.177 3.15 4.145 5.079 9.263 5.281 14.824 23.485-6.658 45.012-19.428 62.157-37.327l44.066-46.005c9.237-9.649 23.7-11.327 34.75-4.854 4.523 10.161 2.716 22.463-5.515 30.941l-38.1 39.28c-46.404 47.823-109.989 75.337-176.76 76.492l-71.498 1.237c-61.684 1.067-123.084 8.784-183.101 23.003z" fill="url(#SVGID_5_)"/><path d="m15.271 504.898 17.331-4.107h.001c60.023-14.224 121.415-21.938 183.103-23.005l15.292-.265-128.503-133.131-89.293 40.923.526 30.374 1.493 86.276z" fill="url(#SVGID_6_)"/><path d="m355.046 405.137c-.507-14.248-12.372-25.525-26.75-25.276l-17.392.301c-34.463.596-68.318-9.07-97.224-27.759-33.225-21.483-75.194-24.507-111.186-8.012l-3.397 1.557 69.712 67.34 35.112 8.278c34.744 8.191 70.374 12.022 106.065 11.404l18.774-.325c14.52-.251 26.549-12.234 26.297-26.755-.001-.164-.011-.753-.011-.753z" fill="url(#SVGID_7_)"/></g><path d="m86.456 322.899h-69.849c-9.172 0-16.607 7.435-16.607 16.607v153.887c0 9.172 7.435 16.607 16.607 16.607h69.849c9.172 0 16.607-7.435 16.607-16.607v-153.887c-.001-9.172-7.436-16.607-16.607-16.607z" fill="url(#SVGID_8_)"/></g></g><g><circle cx="312.608" cy="178.514" fill="url(#SVGID_9_)" r="178.514"/><circle cx="312.608" cy="178.514" fill="url(#SVGID_10_)" r="157.978"/><circle cx="312.608" cy="178.514" fill="url(#SVGID_11_)" r="148.111"/><circle cx="312.608" cy="178.514" fill="url(#SVGID_12_)" r="39.707"/><g><circle cx="312.608" cy="178.514" fill="url(#SVGID_13_)" r="24.888"/><path d="m381.926 87.323-21.503 42.041c-2.537 4.959-8.87 6.211-13.336 2.881-.03-.022-.06-.044-.09-.067-9.593-7.15-21.494-11.358-34.39-11.358s-24.797 4.208-34.39 11.358c-.03.022-.06.044-.09.067-4.466 3.33-10.799 2.078-13.336-2.881l-21.501-42.041c-2.069-4.046-.753-9.023 3.064-11.49 19.067-12.327 41.81-19.494 66.254-19.494s47.187 7.167 66.255 19.494c3.816 2.467 5.133 7.444 3.063 11.49z" fill="url(#SVGID_14_)"/><g><path d="m434.783 178.514c0 47.847-27.498 89.253-67.57 109.329-4.088 2.048-9.076.677-11.517-3.19l-25.19-39.906c-2.978-4.717-.839-10.83 4.31-12.977.034-.014.067-.028.1-.042 20.77-8.733 35.386-29.277 35.386-53.214 0-1.991-.09-3.982-.317-5.973-.004-.037-.007-.074-.011-.112-.551-5.541 3.767-10.331 9.325-9.982l47.076 2.954c4.575.287 8.157 4.015 8.325 8.596.055 1.5.083 3.006.083 4.517z" fill="url(#SVGID_15_)"/><path d="m294.71 244.747-25.19 39.906c-2.441 3.867-7.429 5.238-11.517 3.19-40.071-20.076-67.57-61.482-67.57-109.329 0-1.511.029-3.017.084-4.517.168-4.581 3.75-8.309 8.325-8.596l47.076-2.954c5.558-.349 9.877 4.441 9.325 9.982-.004.037-.007.074-.011.111-.226 1.991-.317 3.983-.317 5.973 0 23.937 14.616 44.481 35.386 53.214.033.014.067.028.1.042 5.148 2.148 7.287 8.261 4.309 12.978z" fill="url(#SVGID_16_)"/></g></g></g></g></svg>