<svg id="Layer_1" enable-background="new 0 0 512 512" height="512" viewBox="0 0 512 512" width="512" xmlns="http://www.w3.org/2000/svg"><g><path d="m404.5 30.81v449.25c0 13.18-10.69 23.87-23.88 23.87h-249.24c-13.19 0-23.88-10.69-23.88-23.87v-449.25c0-13.19 10.69-23.88 23.88-23.88h249.24c13.19 0 23.88 10.69 23.88 23.88z" fill="#b9f6d3"/><path d="m404.5 30.81v449.25c0 13.18-10.69 23.87-23.88 23.87h-39.8c13.19 0 23.88-10.69 23.88-23.87v-449.25c0-13.19-10.69-23.88-23.88-23.88h39.8c13.19 0 23.88 10.69 23.88 23.88z" fill="#93d8e4"/><path d="m404.5 444.75v35.31c0 13.18-10.69 23.87-23.88 23.87h-249.24c-13.19 0-23.88-10.69-23.88-23.87v-35.31z" fill="#4f667a"/><path d="m404.5 30.81v35.57h-297v-35.57c0-13.19 10.69-23.88 23.88-23.88h249.24c13.19 0 23.88 10.69 23.88 23.88z" fill="#4f667a"/><path d="m404.5 30.81v35.57h-39.8v-35.57c0-13.19-10.69-23.88-23.88-23.88h39.8c13.19 0 23.88 10.69 23.88 23.88z" fill="#3a5366"/><path d="m364.7 444.75h39.8v35.31c0 13.18-10.69 23.87-23.88 23.87h-39.8c13.19 0 23.88-10.69 23.88-23.87z" fill="#3a5366"/><path d="m357.26 224.9c0 36-28.86 60.63-72.53 97.92l-24.57 21.16c-1.15 1.01-2.62 1.57-4.16 1.57s-3.01-.56-4.16-1.57l-11.34-9.77-13.23-11.39c-43.67-37.29-72.53-61.92-72.53-97.92 0-33.32 23.13-58.45 53.8-58.45 10.99 0 21.06 3.49 29.94 10.37 8.52 6.6 14.18 15 17.52 21.11 3.34-6.11 9-14.51 17.52-21.11 4.63-3.59 9.58-6.25 14.82-7.98 4.81-1.59 9.86-2.39 15.13-2.39 30.66 0 53.79 25.13 53.79 58.45z" fill="#ff6e6e"/><path d="m357.26 224.9c0 36-28.86 60.63-72.53 97.92l-24.57 21.16c-1.15 1.01-2.62 1.57-4.16 1.57s-3.01-.56-4.16-1.57l-11.34-9.77 13.23-11.39c43.67-37.29 72.53-61.92 72.53-97.92 0-27.27-15.49-49.05-37.92-56.06 4.81-1.59 9.86-2.39 15.13-2.39 30.66 0 53.79 25.13 53.79 58.45z" fill="#f44e92"/></g><g><path d="m380.625 0h-249.25c-17.3 0-31.375 14.075-31.375 31.375v323.741c0 4.142 3.358 7.5 7.5 7.5s7.5-3.358 7.5-7.5v-281.241h282v41.309c0 4.142 3.358 7.5 7.5 7.5s7.5-3.358 7.5-7.5v-83.809c0-17.3-14.075-31.375-31.375-31.375zm-265.625 58.875v-27.5c0-9.029 7.346-16.375 16.375-16.375h249.25c9.029 0 16.375 7.346 16.375 16.375v27.5z"/><path d="m404.5 142.86c-4.142 0-7.5 3.358-7.5 7.5v286.89h-35.255c-4.142 0-7.5 3.358-7.5 7.5s3.358 7.5 7.5 7.5h35.255v28.375c0 9.029-7.346 16.375-16.375 16.375h-249.25c-9.029 0-16.375-7.346-16.375-16.375v-28.375h211.897c4.142 0 7.5-3.358 7.5-7.5s-3.358-7.5-7.5-7.5h-211.897v-47.099c0-4.142-3.358-7.5-7.5-7.5s-7.5 3.358-7.5 7.5v90.474c0 17.3 14.075 31.375 31.375 31.375h249.25c17.3 0 31.375-14.075 31.375-31.375v-330.265c0-4.142-3.358-7.5-7.5-7.5z"/><path d="m230.951 29.449h-20c-4.142 0-7.5 3.358-7.5 7.5s3.358 7.5 7.5 7.5h20c4.142 0 7.5-3.358 7.5-7.5s-3.358-7.5-7.5-7.5z"/><path d="m301.049 29.449h-40c-4.142 0-7.5 3.358-7.5 7.5s3.358 7.5 7.5 7.5h40c4.142 0 7.5-3.358 7.5-7.5s-3.358-7.5-7.5-7.5z"/><path d="m226 466.676c-4.142 0-7.5 3.358-7.5 7.5s3.358 7.5 7.5 7.5h60c4.142 0 7.5-3.358 7.5-7.5s-3.358-7.5-7.5-7.5z"/><path d="m129.279 258.914c0 4.142 3.358 7.5 7.5 7.5h23.308c12.884 19.91 34.744 38.57 62.29 62.084l24.507 21.116c2.519 2.214 5.756 3.434 9.116 3.434s6.597-1.22 9.06-3.385l24.537-21.142c27.564-23.528 49.43-42.194 62.316-62.107h22.402c4.142 0 7.5-3.358 7.5-7.5s-3.358-7.5-7.5-7.5h-14.577c3.278-8.28 5.019-16.991 5.019-26.514 0-37.597-26.35-65.948-61.292-65.948-12.695 0-24.316 4.018-34.537 11.94-5.272 4.083-9.548 8.757-12.928 13.231-3.379-4.474-7.654-9.147-12.925-13.229-10.224-7.924-21.844-11.942-34.54-11.942-34.942 0-61.292 28.352-61.292 65.948 0 9.523 1.741 18.234 5.019 26.514h-15.483c-4.142 0-7.5 3.357-7.5 7.5zm150.553 58.22-23.832 20.535-23.858-20.558c-22.657-19.34-41.175-35.148-53.446-50.698h38.219c2.703 0 5.196-1.454 6.527-3.807l6.501-11.489 19.529 34.514c1.331 2.353 3.825 3.807 6.527 3.807s5.196-1.454 6.527-3.807l23.468-41.476 10.44 18.45c1.331 2.353 3.825 3.807 6.527 3.807h30.34c-12.272 15.555-30.797 31.369-53.469 50.722zm-117.589-92.234c0-29.045 19.901-50.948 46.292-50.948 9.29 0 17.819 2.96 25.353 8.799 7.566 5.86 12.621 13.441 15.529 18.77 1.314 2.409 3.839 3.907 6.583 3.907s5.269-1.499 6.583-3.907c2.908-5.328 7.962-12.91 15.531-18.771 7.531-5.837 16.061-8.797 25.35-8.797 26.391 0 46.292 21.903 46.292 50.948 0 9.404-2.322 18.073-6.64 26.514h-35.781l-14.813-26.18c-1.331-2.353-3.825-3.807-6.527-3.807s-5.197 1.454-6.527 3.807l-23.468 41.474-19.529-34.514c-1.331-2.353-3.825-3.807-6.527-3.807s-5.197 1.455-6.527 3.807l-10.875 19.219h-43.659c-4.318-8.441-6.64-17.11-6.64-26.514z"/></g></svg>